<svg id="svg" version="1.1" xmlns="http://www.w3.org/2000/svg" xmlns:xlink="http://www.w3.org/1999/xlink" width="400" height="345.8432304038004" viewBox="0, 0, 400,345.8432304038004"><g id="svgg"><path id="path0" d="M293.945 1.063 C 286.464 1.631,276.349 2.433,270.415 2.928 C 266.990 3.215,262.007 3.609,259.343 3.805 C 256.678 4.001,254.109 4.239,253.633 4.334 C 253.157 4.429,250.666 4.659,248.097 4.845 C 237.548 5.610,229.707 6.214,225.952 6.551 C 223.763 6.748,219.792 7.074,217.128 7.276 C 214.464 7.479,209.870 7.867,206.920 8.139 C 203.971 8.410,199.533 8.797,197.059 8.997 C 186.497 9.854,184.289 10.106,175.998 11.402 C 174.692 11.606,173.476 11.864,173.297 11.974 C 173.118 12.085,172.163 12.306,171.174 12.466 C 170.186 12.626,168.443 12.991,167.301 13.277 C 166.159 13.563,164.524 13.966,163.668 14.173 C 162.811 14.380,161.721 14.679,161.246 14.838 C 160.770 14.997,159.446 15.405,158.304 15.744 C 155.153 16.681,148.057 19.046,146.886 19.551 C 146.315 19.797,144.602 20.499,143.080 21.112 C 129.432 26.602,114.452 35.421,102.941 44.741 C 101.799 45.665,100.631 46.609,100.346 46.838 C 94.434 51.580,84.842 61.385,78.078 69.600 L 74.776 73.610 72.077 73.836 C 70.592 73.960,65.329 74.224,60.381 74.422 C 43.062 75.114,40.620 75.329,42.425 76.009 C 42.785 76.145,44.448 77.082,46.119 78.093 C 47.791 79.104,49.226 79.931,49.308 79.931 C 49.390 79.931,50.825 80.758,52.496 81.768 C 54.168 82.779,55.770 83.715,56.055 83.849 C 56.341 83.983,57.353 84.562,58.304 85.135 C 59.256 85.709,60.346 86.332,60.727 86.519 C 61.107 86.707,61.886 87.144,62.457 87.492 C 63.735 88.271,72.471 93.348,73.817 94.094 C 74.356 94.392,75.057 94.796,75.374 94.992 C 75.692 95.187,77.119 96.011,78.547 96.823 C 79.974 97.636,81.447 98.488,81.821 98.718 C 83.110 99.510,84.953 100.585,86.505 101.449 C 87.362 101.926,91.208 104.131,95.053 106.348 C 103.269 111.088,103.032 111.043,104.500 108.131 C 107.364 102.447,119.793 87.965,126.291 82.741 C 127.148 82.052,128.863 80.664,130.101 79.656 C 131.340 78.649,132.533 77.684,132.752 77.511 C 132.972 77.339,134.607 76.217,136.385 75.018 C 138.164 73.818,139.671 72.721,139.735 72.578 C 139.798 72.435,140.015 72.318,140.216 72.318 C 140.418 72.318,141.612 71.666,142.869 70.869 C 146.533 68.546,153.961 64.976,160.727 62.285 C 162.432 61.606,167.383 59.909,168.166 59.734 C 168.642 59.628,170.822 59.063,173.010 58.479 C 175.199 57.894,178.157 57.184,179.585 56.900 C 182.046 56.410,183.394 56.219,190.311 55.379 C 194.114 54.918,209.000 54.918,212.803 55.379 C 214.420 55.576,216.912 55.875,218.339 56.045 C 221.303 56.398,227.591 57.714,231.661 58.834 C 233.183 59.253,234.740 59.671,235.121 59.764 C 239.556 60.846,253.245 66.668,257.785 69.403 C 258.452 69.805,259.931 70.648,261.073 71.278 C 262.215 71.907,263.227 72.515,263.322 72.630 C 263.417 72.744,265.285 74.039,267.474 75.508 C 273.313 79.426,284.923 89.197,286.070 91.158 C 286.276 91.510,289.538 95.190,291.880 97.712 C 292.076 97.924,292.617 98.642,293.082 99.308 C 293.546 99.974,294.207 100.826,294.552 101.201 C 294.896 101.577,295.756 102.744,296.464 103.796 C 297.172 104.849,297.830 105.787,297.927 105.882 C 298.175 106.126,300.082 109.030,300.540 109.862 C 300.749 110.242,301.811 112.090,302.899 113.968 C 305.060 117.697,308.997 125.739,308.997 126.423 C 308.997 126.659,309.127 126.999,309.286 127.180 C 310.167 128.179,313.923 139.807,315.037 144.983 C 315.344 146.410,315.762 148.323,315.964 149.233 C 318.744 161.716,318.487 182.143,315.386 195.329 C 315.073 196.661,314.700 198.296,314.559 198.962 C 314.181 200.736,312.821 205.187,312.255 206.500 C 311.985 207.125,311.765 207.859,311.765 208.131 C 311.765 208.404,311.510 209.216,311.198 209.936 C 310.347 211.901,310.118 212.462,309.352 214.461 C 308.965 215.468,307.495 218.640,306.083 221.510 L 303.518 226.729 304.959 227.503 C 305.753 227.928,306.946 228.608,307.612 229.014 C 308.279 229.420,309.057 229.860,309.343 229.992 C 309.628 230.124,310.796 230.800,311.938 231.494 C 313.080 232.188,314.715 233.146,315.571 233.624 C 316.427 234.101,319.230 235.713,321.799 237.205 C 324.369 238.696,327.716 240.627,329.239 241.496 C 330.761 242.364,332.318 243.264,332.699 243.496 C 333.080 243.728,333.625 244.031,333.910 244.170 C 334.196 244.308,335.797 245.249,337.469 246.259 C 339.141 247.270,340.576 248.097,340.657 248.097 C 340.739 248.097,342.218 248.953,343.945 250.000 C 345.671 251.047,347.153 251.903,347.238 251.903 C 347.323 251.903,348.410 252.526,349.654 253.287 C 350.898 254.048,351.988 254.671,352.076 254.671 C 352.165 254.671,353.213 255.268,354.406 255.998 C 355.598 256.727,357.509 257.838,358.651 258.467 C 359.792 259.095,361.396 260.055,362.215 260.600 C 365.403 262.725,365.397 262.705,358.131 248.962 C 357.125 247.059,355.021 243.010,353.456 239.965 C 351.891 236.920,350.364 233.973,350.064 233.416 C 349.763 232.859,349.555 232.314,349.601 232.205 C 349.648 232.096,349.855 231.618,350.061 231.142 C 350.268 230.666,350.707 229.576,351.038 228.720 C 351.369 227.863,351.776 226.851,351.943 226.471 C 352.110 226.090,352.559 224.766,352.941 223.529 C 353.323 222.292,353.768 220.969,353.929 220.588 C 354.472 219.305,355.083 217.482,355.380 216.263 C 355.541 215.597,355.924 214.196,356.230 213.149 C 359.068 203.443,360.661 194.563,361.941 181.315 C 362.364 176.945,362.354 160.193,361.926 156.055 C 361.070 147.765,360.141 140.755,359.536 138.017 C 359.311 136.995,358.894 135.069,358.610 133.737 C 358.145 131.552,357.842 130.304,356.684 125.779 C 356.489 125.017,356.133 123.772,355.892 123.010 C 355.651 122.249,355.180 120.692,354.845 119.550 C 354.510 118.408,354.083 117.085,353.897 116.609 C 353.711 116.133,353.271 114.888,352.920 113.841 C 351.394 109.297,348.167 101.598,345.162 95.334 C 344.156 93.238,342.633 90.043,341.777 88.235 C 340.921 86.427,339.408 83.235,338.414 81.142 C 337.421 79.048,336.060 76.168,335.390 74.740 C 334.720 73.313,333.428 70.588,332.517 68.685 C 331.607 66.782,330.204 63.824,329.399 62.111 C 328.594 60.398,327.196 57.439,326.293 55.536 C 324.390 51.530,321.971 46.413,319.997 42.215 C 319.236 40.597,317.944 37.872,317.126 36.159 C 316.308 34.446,314.940 31.566,314.086 29.758 C 313.233 27.950,311.721 24.758,310.729 22.664 C 306.601 13.963,305.745 12.145,304.454 9.343 C 303.708 7.725,302.635 5.506,302.068 4.413 C 301.502 3.319,301.038 2.195,301.038 1.916 C 301.038 1.637,300.737 1.247,300.369 1.050 C 299.647 0.664,299.195 0.665,293.945 1.063 " stroke="none" fill="#e7585c" fill-rule="evenodd"></path><path id="path1" d="M42.907 76.644 C 42.907 77.234,46.070 83.509,46.453 83.679 C 46.596 83.743,46.713 83.991,46.713 84.230 C 46.713 84.470,47.096 85.352,47.564 86.191 C 48.032 87.030,48.992 88.884,49.698 90.311 C 50.404 91.739,51.345 93.487,51.789 94.197 C 52.232 94.907,52.595 95.712,52.595 95.985 C 52.595 96.258,52.712 96.534,52.855 96.597 C 53.683 96.965,56.966 104.387,56.660 105.199 C 56.339 106.050,55.946 106.979,54.882 109.395 C 54.576 110.090,54.325 110.817,54.325 111.010 C 54.325 111.204,54.065 111.881,53.748 112.515 C 52.691 114.624,52.595 114.866,52.595 115.426 C 52.595 115.733,52.383 116.396,52.124 116.902 C 51.531 118.057,50.846 119.980,50.625 121.107 C 50.532 121.583,50.237 122.463,49.968 123.063 C 49.700 123.662,49.481 124.471,49.481 124.859 C 49.481 125.247,49.325 125.661,49.135 125.779 C 48.945 125.896,48.789 126.369,48.789 126.830 C 48.789 127.291,48.577 128.255,48.318 128.972 C 47.820 130.350,47.162 132.816,46.676 135.121 C 46.516 135.882,46.136 137.673,45.831 139.100 C 45.527 140.528,45.137 142.912,44.965 144.399 C 44.792 145.885,44.536 147.287,44.396 147.513 C 44.256 147.739,44.029 149.247,43.891 150.865 C 43.754 152.483,43.488 154.663,43.299 155.709 C 42.731 158.868,42.835 185.202,43.426 187.889 C 43.698 189.126,43.926 191.011,43.932 192.076 C 43.939 193.142,44.099 194.466,44.289 195.018 C 44.478 195.569,44.781 197.189,44.962 198.616 C 45.351 201.690,45.861 204.553,46.317 206.228 C 46.498 206.894,46.913 208.685,47.239 210.208 C 47.564 211.730,48.047 213.563,48.310 214.280 C 48.573 214.998,48.789 215.962,48.789 216.423 C 48.789 216.883,48.945 217.356,49.135 217.474 C 49.325 217.592,49.481 218.006,49.481 218.394 C 49.481 218.782,49.700 219.590,49.968 220.190 C 50.237 220.790,50.532 221.670,50.625 222.145 C 50.846 223.273,51.531 225.195,52.124 226.351 C 52.383 226.856,52.595 227.520,52.595 227.826 C 52.595 228.133,52.728 228.653,52.890 228.984 C 53.366 229.953,54.193 231.890,54.844 233.564 C 56.580 238.024,57.147 239.194,71.931 268.874 C 79.566 284.202,85.813 296.919,85.813 297.132 C 85.813 297.346,85.937 297.572,86.089 297.636 C 86.421 297.774,89.619 304.229,89.619 304.760 C 89.619 304.965,89.744 305.185,89.895 305.248 C 90.227 305.387,93.426 311.842,93.426 312.373 C 93.426 312.577,93.547 312.797,93.695 312.860 C 94.045 313.010,103.806 332.591,103.806 333.143 C 103.806 333.375,103.937 333.564,104.096 333.564 C 104.255 333.564,104.753 334.433,105.203 335.496 L 106.019 337.428 107.421 337.240 C 108.193 337.136,111.159 336.893,114.014 336.701 C 116.869 336.508,121.773 336.168,124.913 335.946 C 130.688 335.537,136.626 335.232,150.194 334.647 C 154.297 334.470,158.267 334.155,159.017 333.946 C 159.767 333.738,162.405 333.565,164.879 333.562 C 167.353 333.558,171.713 333.327,174.567 333.048 C 177.422 332.769,181.163 332.537,182.881 332.533 C 184.599 332.529,187.315 332.362,188.918 332.161 C 190.520 331.960,195.032 331.643,198.943 331.457 C 212.478 330.812,216.787 330.513,217.991 330.136 C 218.656 329.928,219.979 329.757,220.932 329.756 C 221.885 329.755,223.240 329.594,223.944 329.399 C 224.647 329.203,226.204 328.904,227.404 328.734 C 228.603 328.563,230.363 328.254,231.315 328.047 C 232.266 327.839,233.901 327.500,234.948 327.293 C 235.995 327.086,237.630 326.714,238.581 326.465 C 239.533 326.216,241.324 325.751,242.561 325.431 C 243.798 325.110,245.048 324.727,245.340 324.579 C 245.632 324.431,246.410 324.203,247.070 324.072 C 247.730 323.942,248.581 323.700,248.962 323.535 C 249.343 323.370,251.133 322.749,252.941 322.155 C 254.749 321.561,256.540 320.935,256.920 320.763 C 257.301 320.592,258.858 319.962,260.381 319.363 C 263.300 318.216,263.604 318.084,267.993 316.062 C 273.854 313.361,279.246 310.525,283.564 307.870 C 285.731 306.538,294.230 300.948,294.464 300.702 C 295.047 300.085,297.594 298.270,297.875 298.270 C 298.060 298.270,298.264 298.152,298.328 298.008 C 298.391 297.864,299.144 297.210,300.000 296.554 C 310.259 288.706,321.390 277.276,330.173 265.571 C 330.316 265.381,330.812 264.758,331.276 264.187 L 332.119 263.149 337.772 262.899 C 342.234 262.702,353.425 262.286,362.737 261.971 C 364.349 261.916,363.404 261.108,358.651 258.474 C 357.509 257.842,355.598 256.727,354.406 255.998 C 353.213 255.268,352.165 254.671,352.076 254.671 C 351.988 254.671,350.898 254.048,349.654 253.287 C 348.410 252.526,347.323 251.903,347.238 251.903 C 347.153 251.903,345.671 251.047,343.945 250.000 C 342.218 248.953,340.739 248.097,340.657 248.097 C 340.576 248.097,339.141 247.270,337.469 246.259 C 335.797 245.249,334.196 244.308,333.910 244.170 C 333.625 244.031,333.080 243.728,332.699 243.496 C 332.318 243.264,330.761 242.364,329.239 241.496 C 327.716 240.627,324.369 238.696,321.799 237.205 C 319.230 235.713,316.427 234.101,315.571 233.624 C 314.715 233.146,313.080 232.188,311.938 231.494 C 310.796 230.800,309.628 230.119,309.343 229.981 C 309.057 229.843,308.509 229.542,308.124 229.312 C 303.571 226.583,303.574 226.583,302.635 228.428 C 301.781 230.108,300.277 232.671,300.029 232.872 C 299.912 232.967,298.902 234.418,297.785 236.095 C 296.667 237.773,295.580 239.332,295.368 239.559 C 295.156 239.787,294.210 240.984,293.266 242.218 C 292.322 243.453,291.466 244.542,291.363 244.637 C 291.260 244.732,290.224 245.900,289.061 247.232 C 282.763 254.442,270.682 264.759,266.610 266.403 C 266.419 266.481,265.796 266.870,265.225 267.269 C 263.810 268.258,263.067 268.698,261.246 269.623 C 260.389 270.059,259.611 270.493,259.516 270.588 C 259.420 270.683,258.253 271.282,256.920 271.918 C 255.588 272.555,254.265 273.217,253.979 273.391 C 253.694 273.565,253.227 273.800,252.941 273.914 C 252.656 274.028,251.609 274.490,250.615 274.941 C 249.621 275.392,248.413 275.860,247.930 275.981 C 247.447 276.102,246.967 276.340,246.862 276.509 C 246.758 276.678,246.331 276.822,245.914 276.828 C 245.497 276.834,244.853 277.067,244.484 277.347 C 244.115 277.626,243.462 277.855,243.034 277.855 C 242.606 277.855,242.170 277.993,242.066 278.161 C 241.961 278.330,241.291 278.578,240.575 278.711 C 239.859 278.845,239.118 279.064,238.927 279.197 C 238.737 279.331,237.647 279.716,236.505 280.053 C 235.363 280.391,233.962 280.829,233.391 281.028 C 232.820 281.227,231.730 281.518,230.969 281.675 C 227.980 282.293,226.094 282.752,225.433 283.021 C 224.566 283.374,221.142 284.088,218.858 284.392 C 217.907 284.519,216.961 284.727,216.756 284.855 C 216.552 284.982,215.229 285.252,213.815 285.455 C 212.402 285.657,209.766 286.050,207.958 286.328 C 206.151 286.605,203.114 286.992,201.211 287.188 C 199.308 287.383,197.362 287.640,196.886 287.760 C 196.410 287.879,194.386 288.099,192.388 288.248 C 190.389 288.397,186.886 288.687,184.602 288.893 C 172.521 289.978,156.284 290.694,141.917 290.775 L 132.104 290.830 130.721 288.235 C 129.077 285.151,126.901 281.065,124.687 276.903 C 123.801 275.238,122.439 272.630,121.659 271.107 C 120.880 269.585,120.164 268.261,120.069 268.166 C 119.974 268.071,119.607 267.370,119.253 266.609 C 118.899 265.848,118.477 264.991,118.316 264.706 C 117.872 263.920,114.096 256.595,112.519 253.460 C 108.542 245.556,102.422 232.451,102.422 231.838 C 102.422 231.676,102.198 231.103,101.924 230.564 C 101.105 228.953,100.346 227.083,100.346 226.678 C 100.346 226.469,100.190 226.298,100.000 226.298 C 99.810 226.298,99.654 225.938,99.654 225.499 C 99.654 225.059,99.425 224.397,99.146 224.028 C 98.867 223.659,98.633 223.097,98.627 222.779 C 98.621 222.461,98.356 221.683,98.038 221.049 C 97.012 219.000,96.886 218.701,96.886 218.310 C 96.886 218.098,96.678 217.434,96.424 216.834 C 95.839 215.455,95.149 213.527,94.919 212.630 C 94.821 212.249,94.523 211.447,94.256 210.847 C 93.990 210.248,93.772 209.506,93.772 209.199 C 93.772 208.892,93.635 208.371,93.469 208.040 C 93.302 207.710,92.896 206.505,92.567 205.363 C 92.238 204.221,91.751 202.659,91.486 201.892 C 91.221 201.124,91.003 200.004,91.003 199.403 C 91.003 198.802,90.862 198.224,90.690 198.117 C 90.517 198.010,90.266 197.106,90.131 196.107 C 89.997 195.108,89.787 194.135,89.666 193.945 C 89.394 193.517,88.690 189.622,88.258 186.159 C 88.080 184.732,87.782 183.097,87.594 182.526 C 86.429 178.968,86.435 156.085,87.602 151.903 C 87.789 151.237,88.080 149.758,88.249 148.616 C 88.773 145.093,89.435 141.938,89.706 141.666 C 89.849 141.524,89.965 141.083,89.964 140.686 C 89.963 140.290,90.196 139.226,90.483 138.322 C 90.769 137.418,91.253 135.861,91.558 134.862 C 91.862 133.862,92.329 132.554,92.596 131.955 C 92.862 131.355,93.080 130.691,93.080 130.479 C 93.080 130.088,93.206 129.789,94.232 127.740 C 94.550 127.106,94.810 126.421,94.810 126.217 C 94.810 126.013,95.277 124.857,95.848 123.649 C 96.419 122.440,96.886 121.296,96.886 121.106 C 96.886 120.917,97.042 120.761,97.232 120.761 C 97.422 120.761,97.578 120.469,97.578 120.112 C 97.578 119.754,97.811 119.268,98.097 119.031 C 98.382 118.794,98.616 118.408,98.616 118.172 C 98.616 117.743,99.976 115.062,101.339 112.803 C 102.311 111.193,102.533 110.719,102.378 110.586 C 102.227 110.456,88.781 102.716,86.505 101.449 C 84.953 100.585,83.110 99.510,81.821 98.718 C 81.447 98.488,79.974 97.636,78.547 96.823 C 77.119 96.011,75.692 95.187,75.374 94.992 C 75.057 94.796,74.356 94.392,73.817 94.094 C 72.471 93.348,63.735 88.271,62.457 87.492 C 61.886 87.144,61.107 86.707,60.727 86.519 C 60.346 86.332,59.256 85.709,58.304 85.135 C 57.353 84.562,56.341 83.983,56.055 83.849 C 55.770 83.715,54.168 82.779,52.496 81.768 C 50.825 80.758,49.390 79.931,49.308 79.931 C 49.226 79.931,47.752 79.078,46.033 78.035 C 43.928 76.759,42.907 76.304,42.907 76.644 " stroke="none" fill="#1c4464" fill-rule="evenodd"></path><path id="path2" d="M180.741 91.436 C 180.146 92.435,179.227 94.031,178.699 94.983 C 178.171 95.934,177.142 97.689,176.413 98.882 C 175.683 100.074,175.087 101.123,175.087 101.211 C 175.087 101.300,174.464 102.389,173.702 103.633 C 172.941 104.877,172.313 106.009,172.306 106.148 C 172.246 107.370,170.587 108.363,168.135 108.645 C 165.110 108.993,162.244 109.636,161.782 110.071 C 161.601 110.241,161.212 110.382,160.917 110.383 C 160.622 110.384,159.935 110.617,159.390 110.902 C 158.844 111.186,158.124 111.419,157.788 111.419 C 157.453 111.419,156.984 111.652,156.747 111.938 C 156.510 112.223,156.168 112.457,155.987 112.457 C 155.542 112.457,150.722 115.578,150.577 115.960 C 150.513 116.127,150.312 116.263,150.129 116.263 C 149.161 116.263,143.350 122.222,140.509 126.128 C 137.628 130.089,136.557 131.967,134.789 136.159 C 134.468 136.920,133.995 138.010,133.739 138.581 C 133.483 139.152,133.193 140.009,133.094 140.484 C 132.785 141.961,132.140 144.416,131.775 145.502 C 131.266 147.016,131.012 157.952,131.434 160.208 C 132.043 163.461,132.586 165.557,132.908 165.900 C 133.079 166.080,133.218 166.552,133.218 166.947 C 133.218 167.343,133.432 167.973,133.693 168.349 C 134.841 170.000,133.750 174.704,131.889 176.124 C 131.764 176.219,131.354 176.920,130.978 177.682 C 130.602 178.443,129.941 179.548,129.507 180.136 C 129.074 180.725,128.720 181.376,128.720 181.582 C 128.720 181.789,128.525 182.163,128.287 182.415 C 128.049 182.666,127.498 183.573,127.063 184.429 C 126.628 185.285,126.083 186.292,125.852 186.665 C 125.621 187.039,125.103 187.897,124.701 188.573 L 123.970 189.802 124.766 190.403 C 125.204 190.733,125.647 191.003,125.751 191.003 C 125.855 191.003,126.957 191.626,128.201 192.388 C 129.444 193.149,130.534 193.772,130.623 193.772 C 130.711 193.772,131.760 194.369,132.952 195.098 C 134.145 195.828,136.055 196.941,137.197 197.572 C 138.339 198.203,140.055 199.217,141.011 199.824 L 142.749 200.929 143.186 203.665 C 144.013 208.851,146.017 214.361,148.461 218.166 C 148.827 218.737,149.234 219.438,149.365 219.723 C 149.496 220.009,149.700 220.320,149.818 220.415 C 149.936 220.510,150.746 221.525,151.617 222.670 C 155.901 228.293,163.382 233.936,170.415 236.848 C 171.176 237.164,172.266 237.621,172.837 237.866 C 174.621 238.629,177.305 239.450,178.028 239.453 C 178.408 239.455,179.420 239.705,180.277 240.010 C 181.485 240.439,183.309 240.569,188.408 240.587 C 194.993 240.610,196.157 240.458,200.173 239.048 C 200.744 238.848,201.600 238.599,202.076 238.496 C 202.552 238.392,203.248 238.097,203.624 237.839 C 204.533 237.215,206.384 237.243,206.920 237.889 C 207.157 238.175,207.485 238.408,207.649 238.408 C 207.900 238.408,211.436 240.418,213.149 241.535 C 213.434 241.721,213.901 241.979,214.187 242.108 C 214.472 242.237,215.649 242.917,216.802 243.618 C 217.955 244.320,219.240 245.002,219.657 245.135 C 220.074 245.267,220.415 245.521,220.415 245.698 C 220.415 245.876,220.574 246.021,220.768 246.021 C 220.962 246.021,221.738 246.410,222.491 246.886 C 223.987 247.830,224.912 247.995,224.917 247.318 C 224.919 247.080,225.524 245.933,226.263 244.769 C 227.001 243.605,227.711 242.321,227.840 241.915 C 227.969 241.509,228.220 241.176,228.397 241.176 C 228.575 241.176,228.721 240.982,228.723 240.744 C 228.725 240.506,229.348 239.332,230.107 238.135 C 230.867 236.938,231.488 235.820,231.488 235.651 C 231.488 235.482,231.683 235.138,231.920 234.886 C 232.158 234.635,232.709 233.728,233.145 232.872 C 234.951 229.318,235.312 228.983,237.674 228.672 C 241.576 228.156,243.429 227.709,246.194 226.612 C 248.005 225.893,250.858 224.488,252.422 223.544 C 253.374 222.970,254.379 222.392,254.656 222.258 C 256.067 221.581,262.000 216.143,263.841 213.841 C 264.792 212.651,265.804 211.410,266.090 211.085 C 266.719 210.368,267.396 209.353,267.713 208.651 C 267.842 208.365,268.542 207.156,269.268 205.963 C 269.994 204.770,270.588 203.730,270.588 203.651 C 270.588 203.573,271.055 202.499,271.626 201.266 C 272.197 200.032,272.664 198.785,272.664 198.494 C 272.664 198.203,272.820 197.868,273.010 197.751 C 273.201 197.633,273.357 197.118,273.359 196.606 C 273.360 196.094,273.593 195.229,273.878 194.684 C 274.162 194.139,274.394 193.331,274.394 192.888 C 274.394 192.446,274.639 191.031,274.937 189.744 C 275.926 185.483,275.298 175.507,273.826 172.093 C 273.568 171.493,273.356 170.768,273.356 170.481 C 273.356 170.195,272.948 169.173,272.449 168.211 C 271.467 166.319,271.459 166.384,272.995 163.841 C 273.569 162.889,274.148 161.877,274.281 161.592 C 274.527 161.064,276.904 157.002,277.521 156.055 C 277.707 155.770,277.965 155.303,278.094 155.017 C 278.223 154.732,278.887 153.564,279.569 152.422 C 282.541 147.448,282.557 147.300,280.233 146.090 C 279.401 145.657,278.486 145.157,278.201 144.980 C 276.957 144.205,273.138 141.975,272.664 141.746 C 272.379 141.608,271.834 141.307,271.453 141.076 C 271.073 140.846,269.827 140.112,268.685 139.446 C 267.543 138.780,266.298 138.043,265.917 137.808 C 265.536 137.573,264.971 137.288,264.662 137.173 C 263.823 136.864,263.399 135.661,263.129 132.823 C 262.996 131.423,262.769 130.121,262.625 129.931 C 262.480 129.740,262.253 128.924,262.120 128.116 C 261.987 127.308,261.735 126.559,261.562 126.452 C 261.388 126.345,261.246 126.024,261.246 125.739 C 261.246 125.019,258.090 118.685,257.731 118.685 C 257.571 118.685,257.439 118.520,257.439 118.319 C 257.439 116.933,249.648 108.426,246.365 106.228 C 245.939 105.943,245.387 105.515,245.138 105.277 C 244.889 105.039,244.596 104.844,244.485 104.844 C 244.375 104.844,243.640 104.377,242.852 103.806 C 242.064 103.235,241.221 102.768,240.980 102.768 C 240.739 102.768,240.490 102.651,240.427 102.509 C 240.363 102.366,239.689 101.960,238.927 101.606 C 238.166 101.252,237.310 100.822,237.024 100.652 C 236.739 100.481,236.272 100.251,235.986 100.139 C 235.701 100.028,235.156 99.812,234.775 99.659 C 223.837 95.265,211.313 95.208,202.654 99.513 C 201.286 100.193,200.530 100.125,199.042 99.187 C 197.913 98.476,194.412 96.509,192.240 95.366 C 191.840 95.155,191.024 94.632,190.426 94.204 C 189.829 93.776,189.244 93.426,189.127 93.426 C 189.010 93.426,187.890 92.803,186.637 92.042 C 185.384 91.280,184.238 90.657,184.090 90.657 C 183.942 90.657,183.628 90.424,183.391 90.138 C 182.616 89.204,181.845 89.582,180.741 91.436 M44.717 144.637 C 44.717 145.303,44.788 145.575,44.875 145.242 C 44.962 144.909,44.962 144.364,44.875 144.031 C 44.788 143.698,44.717 143.971,44.717 144.637 M87.741 151.063 C 87.614 151.570,87.576 152.052,87.658 152.133 C 87.739 152.215,87.910 151.866,88.038 151.359 C 88.165 150.852,88.202 150.371,88.121 150.289 C 88.039 150.208,87.868 150.556,87.741 151.063 M43.698 152.076 C 43.700 153.028,43.767 153.376,43.847 152.850 C 43.926 152.324,43.924 151.545,43.842 151.120 C 43.760 150.694,43.695 151.125,43.698 152.076 M87.278 153.633 C 87.278 154.299,87.349 154.572,87.436 154.239 C 87.523 153.906,87.523 153.361,87.436 153.028 C 87.349 152.695,87.278 152.967,87.278 153.633 M86.945 159.862 C 86.945 160.718,87.013 161.068,87.095 160.640 C 87.178 160.212,87.178 159.511,87.095 159.083 C 87.013 158.655,86.945 159.005,86.945 159.862 M42.710 171.453 C 42.710 176.021,42.759 177.841,42.819 175.499 C 42.879 173.157,42.879 169.420,42.819 167.195 C 42.759 164.969,42.710 166.886,42.710 171.453 M86.754 173.414 C 86.963 175.949,87.138 176.293,87.165 174.221 C 87.177 173.270,87.055 172.284,86.894 172.030 C 86.723 171.759,86.664 172.334,86.754 173.414 M87.291 180.623 C 87.291 181.479,87.359 181.830,87.441 181.401 C 87.524 180.973,87.524 180.272,87.441 179.844 C 87.359 179.416,87.291 179.766,87.291 180.623 M87.754 183.218 C 88.039 184.490,88.237 184.766,88.230 183.881 C 88.227 183.516,88.067 182.984,87.873 182.699 C 87.617 182.320,87.585 182.460,87.754 183.218 M43.698 191.176 C 43.700 192.128,43.767 192.476,43.847 191.950 C 43.926 191.424,43.924 190.646,43.842 190.220 C 43.760 189.795,43.695 190.225,43.698 191.176 M44.003 194.810 C 44.021 195.709,44.566 197.185,44.578 196.367 C 44.583 195.986,44.454 195.363,44.291 194.983 C 44.108 194.559,43.997 194.492,44.003 194.810 M44.717 198.616 C 44.717 199.282,44.788 199.554,44.875 199.221 C 44.962 198.888,44.962 198.343,44.875 198.010 C 44.788 197.677,44.717 197.950,44.717 198.616 M91.019 200.047 C 91.010 200.358,91.231 201.137,91.509 201.777 C 92.162 203.282,92.178 202.658,91.532 200.865 C 91.258 200.104,91.027 199.736,91.019 200.047 M54.350 233.045 C 54.350 233.235,54.572 233.780,54.844 234.256 C 55.116 234.732,55.339 234.965,55.339 234.775 C 55.339 234.585,55.116 234.040,54.844 233.564 C 54.572 233.088,54.350 232.855,54.350 233.045 M345.234 262.533 C 345.849 262.610,346.939 262.611,347.657 262.536 C 348.375 262.461,347.872 262.399,346.540 262.397 C 345.208 262.396,344.620 262.457,345.234 262.533 M334.179 263.230 C 334.993 263.303,336.238 263.302,336.947 263.227 C 337.655 263.153,336.990 263.093,335.467 263.094 C 333.945 263.096,333.365 263.156,334.179 263.230 M321.605 276.211 L 320.588 277.336 321.713 276.319 C 322.331 275.760,322.837 275.254,322.837 275.195 C 322.837 274.927,322.552 275.163,321.605 276.211 M317.106 281.055 L 316.090 282.180 317.215 281.164 C 317.833 280.605,318.339 280.099,318.339 280.039 C 318.339 279.772,318.054 280.007,317.106 281.055 M181.406 289.176 C 181.932 289.255,182.711 289.253,183.136 289.171 C 183.562 289.089,183.131 289.024,182.180 289.026 C 181.228 289.029,180.880 289.096,181.406 289.176 M174.140 289.522 C 174.666 289.601,175.444 289.599,175.870 289.517 C 176.295 289.435,175.865 289.370,174.913 289.372 C 173.962 289.375,173.614 289.442,174.140 289.522 M170.162 289.870 C 170.784 289.947,171.718 289.946,172.238 289.867 C 172.758 289.788,172.249 289.725,171.107 289.727 C 169.965 289.729,169.540 289.793,170.162 289.870 M159.784 290.219 C 160.598 290.292,161.844 290.291,162.552 290.217 C 163.261 290.143,162.595 290.083,161.073 290.084 C 159.550 290.085,158.970 290.146,159.784 290.219 M146.799 290.912 C 147.703 290.983,149.183 290.983,150.087 290.912 C 150.990 290.840,150.251 290.782,148.443 290.782 C 146.635 290.782,145.895 290.840,146.799 290.912 M205.709 331.124 C 205.313 331.285,206.053 331.329,207.439 331.227 C 208.772 331.130,209.926 330.993,210.006 330.923 C 210.294 330.669,206.382 330.852,205.709 331.124 M196.637 331.743 C 197.546 331.814,198.948 331.813,199.751 331.741 C 200.554 331.668,199.810 331.610,198.097 331.611 C 196.384 331.612,195.727 331.671,196.637 331.743 M187.803 332.424 C 188.231 332.507,188.932 332.507,189.360 332.424 C 189.788 332.342,189.438 332.274,188.581 332.274 C 187.725 332.274,187.375 332.342,187.803 332.424 M179.504 332.777 C 180.126 332.854,181.061 332.852,181.581 332.773 C 182.101 332.694,181.592 332.631,180.450 332.633 C 179.308 332.635,178.883 332.700,179.504 332.777 M160.640 333.812 C 161.163 333.891,162.020 333.891,162.543 333.812 C 163.067 333.733,162.638 333.668,161.592 333.668 C 160.545 333.668,160.117 333.733,160.640 333.812 M144.377 334.850 C 144.901 334.929,145.757 334.929,146.280 334.850 C 146.804 334.771,146.375 334.706,145.329 334.706 C 144.282 334.706,143.854 334.771,144.377 334.850 M134.007 335.549 C 134.917 335.620,136.318 335.620,137.121 335.547 C 137.924 335.474,137.180 335.416,135.467 335.417 C 133.754 335.418,133.097 335.477,134.007 335.549 M124.308 336.234 C 124.831 336.313,125.688 336.313,126.211 336.234 C 126.734 336.155,126.306 336.090,125.260 336.090 C 124.213 336.090,123.785 336.155,124.308 336.234 M116.522 336.582 C 117.141 336.659,118.153 336.659,118.772 336.582 C 119.390 336.506,118.884 336.443,117.647 336.443 C 116.410 336.443,115.904 336.506,116.522 336.582 " stroke="none" fill="#3cbc9c" fill-rule="evenodd"></path><path id="path3" d="M0.000 173.010 L 0.000 346.021 200.000 346.021 L 400.000 346.021 400.000 173.010 L 400.000 0.000 350.000 0.000 C 302.412 0.000,298.335 0.075,300.506 0.908 C 300.784 1.015,301.114 1.438,301.238 1.849 C 301.363 2.259,302.207 4.152,303.115 6.055 C 304.022 7.958,305.422 10.917,306.226 12.630 C 307.030 14.343,308.434 17.301,309.347 19.204 C 312.370 25.510,314.947 30.944,315.829 32.872 C 316.308 33.919,317.474 36.410,318.421 38.408 C 319.368 40.407,320.766 43.365,321.528 44.983 C 322.291 46.600,323.734 49.637,324.735 51.730 C 325.736 53.824,327.142 56.782,327.858 58.304 C 328.574 59.827,329.898 62.630,330.800 64.533 C 331.702 66.436,333.100 69.394,333.908 71.107 C 334.716 72.820,336.119 75.779,337.026 77.682 C 337.933 79.585,339.256 82.388,339.965 83.910 C 340.674 85.433,342.107 88.469,343.149 90.657 C 346.228 97.125,346.926 98.632,349.312 103.979 C 349.729 104.913,350.409 106.540,351.191 108.478 C 351.345 108.858,351.657 109.630,351.885 110.193 C 352.113 110.756,352.611 112.158,352.991 113.307 C 353.372 114.457,353.816 115.709,353.980 116.090 C 354.143 116.471,354.610 117.950,355.017 119.377 C 355.425 120.804,355.891 122.284,356.054 122.664 C 356.216 123.045,356.426 123.746,356.521 124.221 C 356.615 124.697,357.228 127.189,357.884 129.758 C 358.540 132.327,359.181 135.130,359.310 135.986 C 359.438 136.843,359.683 138.010,359.855 138.581 C 360.026 139.152,360.404 141.410,360.695 143.599 C 360.986 145.787,361.387 148.746,361.586 150.173 C 362.782 158.735,362.774 178.647,361.572 187.716 C 360.880 192.941,360.176 197.407,359.690 199.654 C 359.422 200.891,359.131 202.370,359.043 202.941 C 358.954 203.512,358.630 204.991,358.322 206.228 C 358.014 207.465,357.676 208.867,357.571 209.343 C 357.466 209.818,357.153 210.986,356.876 211.938 C 356.598 212.889,356.123 214.524,355.819 215.571 C 355.515 216.618,355.142 217.785,354.990 218.166 C 354.838 218.547,354.174 220.493,353.514 222.491 C 352.424 225.790,352.083 226.726,351.183 228.893 C 351.025 229.273,350.649 230.202,350.348 230.957 L 349.800 232.330 351.929 236.494 C 353.100 238.784,354.712 241.903,355.510 243.426 C 356.309 244.948,358.537 249.230,360.462 252.941 C 362.386 256.652,364.200 260.148,364.492 260.708 C 365.379 262.411,364.861 262.629,359.906 262.637 C 357.503 262.642,352.422 262.871,348.616 263.147 C 344.810 263.423,339.647 263.653,337.143 263.658 L 332.590 263.668 331.249 265.311 C 330.511 266.215,329.222 267.889,328.385 269.031 C 327.548 270.173,326.775 271.185,326.667 271.280 C 326.559 271.375,325.701 272.388,324.761 273.529 C 319.999 279.314,309.841 289.371,303.009 295.066 C 302.497 295.492,300.872 296.731,299.396 297.820 C 297.920 298.909,296.557 299.929,296.367 300.086 C 295.156 301.087,291.652 303.460,291.384 303.460 C 291.206 303.460,291.009 303.587,290.946 303.743 C 290.764 304.188,284.360 308.304,283.849 308.304 C 283.597 308.304,283.391 308.433,283.391 308.589 C 283.391 308.746,282.729 309.221,281.920 309.646 C 281.112 310.071,279.983 310.720,279.412 311.088 C 278.841 311.456,278.140 311.849,277.855 311.961 C 277.569 312.073,276.939 312.377,276.454 312.635 C 275.969 312.894,274.256 313.758,272.648 314.557 C 271.039 315.355,269.490 316.144,269.204 316.311 C 268.919 316.477,268.452 316.704,268.166 316.815 C 267.881 316.926,266.869 317.373,265.917 317.809 C 262.532 319.359,261.656 319.723,261.308 319.723 C 261.114 319.723,260.515 319.942,259.976 320.210 C 258.957 320.717,258.212 321.021,255.882 321.882 C 253.090 322.913,252.057 323.258,251.211 323.438 C 250.735 323.539,250.190 323.743,250.000 323.891 C 249.810 324.039,249.068 324.269,248.353 324.403 C 247.637 324.536,246.966 324.784,246.862 324.953 C 246.757 325.121,246.352 325.260,245.960 325.260 C 245.569 325.260,244.449 325.510,243.472 325.816 C 242.495 326.122,240.995 326.590,240.138 326.856 C 239.282 327.122,238.084 327.338,237.477 327.337 C 236.870 327.336,236.277 327.491,236.159 327.682 C 236.042 327.872,235.537 328.028,235.037 328.028 C 234.537 328.028,233.262 328.246,232.203 328.513 C 229.357 329.230,226.070 329.846,223.529 330.139 C 222.292 330.282,219.957 330.563,218.339 330.765 C 211.703 331.594,199.773 332.405,187.477 332.865 C 183.159 333.026,179.309 333.259,178.922 333.382 C 178.535 333.504,175.373 333.739,171.895 333.904 C 168.417 334.068,163.080 334.375,160.035 334.586 C 145.653 335.583,133.793 336.283,124.913 336.657 C 121.202 336.814,116.375 337.126,114.187 337.351 C 111.998 337.577,109.118 337.712,107.785 337.652 L 105.363 337.543 81.608 289.965 C 60.326 247.340,56.591 239.779,55.285 236.678 C 54.882 235.723,54.313 234.392,53.486 232.474 C 53.186 231.779,52.941 231.037,52.941 230.825 C 52.941 230.614,52.783 230.170,52.589 229.840 C 52.129 229.055,50.504 224.640,50.266 223.529 C 50.164 223.054,49.959 222.509,49.812 222.318 C 49.664 222.128,49.431 221.349,49.294 220.588 C 49.157 219.827,48.930 219.048,48.789 218.858 C 48.648 218.668,48.421 217.889,48.284 217.128 C 48.147 216.367,47.912 215.588,47.761 215.398 C 47.610 215.208,47.403 214.507,47.302 213.841 C 47.113 212.605,46.673 210.833,45.812 207.832 C 45.546 206.906,45.329 205.631,45.329 204.998 C 45.329 204.365,45.173 203.751,44.983 203.633 C 44.792 203.516,44.637 202.838,44.637 202.128 C 44.637 201.418,44.403 199.941,44.118 198.845 C 43.832 197.749,43.599 196.254,43.599 195.523 C 43.599 194.792,43.379 192.970,43.110 191.474 C 41.631 183.240,41.721 155.735,43.245 150.521 C 43.440 149.856,43.599 148.595,43.599 147.718 C 43.599 146.841,43.756 145.673,43.948 145.121 C 44.140 144.569,44.446 143.106,44.627 141.869 C 45.294 137.318,45.612 135.712,45.985 135.015 C 46.195 134.623,46.367 133.955,46.367 133.531 C 46.367 133.107,46.615 131.890,46.918 130.826 C 47.221 129.763,47.708 128.036,47.999 126.990 C 48.291 125.943,48.646 124.847,48.789 124.554 C 48.932 124.261,49.160 123.367,49.295 122.566 C 49.431 121.766,49.683 121.023,49.857 120.916 C 50.031 120.808,50.173 120.423,50.173 120.061 C 50.173 119.698,50.391 118.889,50.657 118.264 C 51.079 117.273,51.514 116.164,52.595 113.322 C 53.386 111.242,54.118 109.397,54.516 108.478 C 56.435 104.050,56.573 105.218,53.406 99.080 C 51.949 96.256,49.681 91.843,48.366 89.273 C 45.392 83.462,45.621 83.902,43.023 78.977 C 41.011 75.161,41.008 75.166,45.569 74.970 C 51.066 74.735,65.627 74.074,70.460 73.840 L 74.656 73.638 77.193 70.469 C 87.407 57.709,99.899 46.056,112.861 37.197 C 115.326 35.512,123.429 30.450,123.660 30.450 C 123.724 30.450,125.121 29.676,126.766 28.729 C 130.446 26.612,137.031 23.450,141.869 21.478 C 143.867 20.663,145.770 19.858,146.098 19.689 C 146.427 19.520,147.672 19.061,148.867 18.669 C 150.061 18.277,151.272 17.834,151.557 17.684 C 151.843 17.535,153.010 17.138,154.152 16.802 C 155.294 16.466,156.929 15.978,157.785 15.718 C 162.106 14.405,166.264 13.292,168.685 12.798 C 169.827 12.565,171.696 12.169,172.837 11.917 C 173.979 11.666,176.393 11.227,178.201 10.943 C 180.009 10.659,182.578 10.254,183.910 10.044 C 186.392 9.652,190.728 9.250,198.962 8.648 C 201.531 8.460,204.022 8.226,204.498 8.129 C 204.974 8.031,207.465 7.808,210.035 7.633 C 217.487 7.126,224.307 6.603,230.450 6.068 C 233.590 5.795,238.183 5.408,240.657 5.210 C 243.131 5.011,247.881 4.617,251.211 4.334 C 254.542 4.051,260.303 3.582,264.014 3.293 C 271.089 2.742,281.047 1.922,287.197 1.384 C 289.196 1.209,292.349 0.967,294.204 0.847 C 296.060 0.726,297.578 0.486,297.578 0.314 C 297.578 0.127,237.541 0.000,148.789 0.000 L 0.000 0.000 0.000 173.010 M193.945 55.215 C 186.730 55.742,178.693 57.053,172.664 58.687 C 171.618 58.970,170.138 59.369,169.377 59.573 C 167.837 59.985,162.151 61.837,161.073 62.277 C 155.830 64.419,153.473 65.468,149.797 67.300 C 147.402 68.493,144.833 69.849,144.088 70.314 C 143.343 70.778,142.500 71.269,142.215 71.406 C 140.066 72.431,131.643 78.370,128.475 81.092 C 122.449 86.272,119.142 89.542,113.907 95.502 C 110.357 99.544,104.600 107.855,102.762 111.592 C 102.107 112.924,101.488 114.092,101.386 114.187 C 101.072 114.480,96.653 123.588,95.846 125.606 C 95.427 126.652,94.945 127.820,94.775 128.201 C 94.022 129.887,92.645 133.850,92.402 135.028 C 92.256 135.738,91.979 136.517,91.787 136.758 C 91.594 137.000,91.352 137.664,91.249 138.235 C 91.146 138.806,90.810 140.285,90.501 141.522 C 90.192 142.760,89.802 144.494,89.634 145.376 C 89.465 146.259,89.160 147.582,88.956 148.318 C 88.752 149.053,88.579 150.277,88.571 151.038 C 88.563 151.799,88.331 153.356,88.055 154.498 C 87.447 157.016,87.350 176.715,87.933 179.239 C 88.131 180.095,88.424 182.119,88.583 183.737 C 88.743 185.355,89.041 187.222,89.246 187.887 C 89.452 188.552,89.619 189.650,89.619 190.326 C 89.619 191.003,89.761 191.705,89.935 191.886 C 90.109 192.067,90.414 193.149,90.614 194.291 C 91.352 198.516,91.577 199.498,91.978 200.237 C 92.203 200.652,92.388 201.374,92.388 201.841 C 92.388 202.307,92.620 203.135,92.904 203.680 C 93.189 204.225,93.422 205.068,93.423 205.554 C 93.425 206.039,93.561 206.584,93.727 206.765 C 93.893 206.946,94.295 208.028,94.621 209.170 C 94.946 210.311,95.434 211.757,95.703 212.382 C 95.973 213.007,96.194 213.815,96.194 214.178 C 96.194 214.541,96.338 214.927,96.513 215.035 C 96.689 215.144,96.943 215.736,97.078 216.352 C 97.214 216.968,97.559 218.017,97.845 218.684 C 98.131 219.351,98.481 220.208,98.622 220.588 C 99.689 223.464,101.244 227.271,103.322 232.093 C 103.588 232.712,104.024 233.724,104.290 234.343 C 104.872 235.694,106.279 238.798,107.701 241.869 C 108.822 244.287,108.840 244.324,110.352 247.316 C 110.906 248.411,111.915 250.476,112.594 251.903 C 113.725 254.280,114.848 256.463,115.619 257.785 C 115.785 258.071,116.010 258.538,116.119 258.824 C 116.228 259.109,116.568 259.806,116.874 260.371 C 117.439 261.414,121.795 269.810,123.253 272.664 C 123.690 273.521,124.126 274.299,124.221 274.394 C 124.379 274.552,125.059 275.847,128.625 282.786 C 129.285 284.071,129.966 285.209,130.137 285.315 C 130.309 285.421,130.450 285.797,130.450 286.151 C 130.450 286.504,130.567 286.845,130.709 286.909 C 130.852 286.972,131.358 287.781,131.834 288.705 C 132.976 290.925,131.998 290.819,145.430 290.183 C 151.940 289.875,159.213 289.559,161.592 289.481 C 171.228 289.166,182.265 288.535,183.631 288.222 C 184.429 288.039,186.471 287.889,188.168 287.889 C 189.866 287.889,192.094 287.724,193.119 287.522 C 194.144 287.321,196.384 287.026,198.097 286.867 C 202.442 286.464,207.559 285.808,208.997 285.469 C 210.217 285.181,213.443 284.613,216.955 284.066 C 221.729 283.323,236.637 279.610,237.889 278.852 C 238.080 278.736,239.170 278.378,240.311 278.054 C 241.453 277.731,242.828 277.242,243.367 276.968 C 243.906 276.695,244.562 276.471,244.826 276.471 C 245.090 276.471,245.894 276.211,246.615 275.893 C 247.335 275.576,248.586 275.031,249.394 274.682 C 250.203 274.334,251.537 273.737,252.358 273.356 C 253.180 272.976,254.017 272.664,254.219 272.664 C 254.421 272.664,254.780 272.431,255.017 272.145 C 255.254 271.860,255.727 271.626,256.069 271.626 C 256.410 271.626,256.742 271.510,256.805 271.367 C 256.869 271.224,257.621 270.751,258.478 270.316 C 260.215 269.432,260.758 269.145,261.765 268.576 C 262.145 268.361,262.956 267.933,263.565 267.625 C 264.175 267.316,264.856 266.845,265.078 266.577 C 265.301 266.309,265.611 266.090,265.769 266.090 C 266.454 266.090,275.964 259.172,278.547 256.794 C 281.483 254.091,287.963 247.578,289.570 245.714 C 290.453 244.688,291.427 243.581,291.734 243.253 C 292.041 242.925,292.581 242.168,292.933 241.570 C 293.286 240.973,293.684 240.484,293.818 240.484 C 293.952 240.484,294.421 239.901,294.861 239.187 C 295.301 238.473,295.957 237.548,296.318 237.132 C 296.679 236.715,297.149 236.064,297.362 235.686 C 298.200 234.200,302.231 227.797,302.946 226.817 C 304.719 224.385,309.505 214.020,311.255 208.824 C 311.576 207.872,311.955 206.782,312.099 206.401 C 312.242 206.021,312.632 204.775,312.964 203.633 C 313.296 202.491,313.722 201.168,313.910 200.692 C 314.097 200.216,314.394 199.048,314.568 198.097 C 314.742 197.145,315.118 195.277,315.403 193.945 C 317.197 185.568,317.418 183.008,317.407 170.761 C 317.397 158.544,317.248 156.817,315.445 147.924 C 315.175 146.592,314.846 144.957,314.714 144.291 C 314.582 143.625,314.255 142.379,313.988 141.522 C 313.721 140.666,313.014 138.330,312.415 136.332 C 311.817 134.334,311.192 132.551,311.027 132.370 C 310.862 132.189,310.727 131.746,310.727 131.386 C 310.727 131.025,310.507 130.316,310.239 129.811 C 309.971 129.306,309.407 128.036,308.985 126.990 C 307.548 123.421,305.148 118.285,304.135 116.609 C 303.962 116.324,302.982 114.611,301.956 112.803 C 299.897 109.173,297.191 105.062,294.808 101.945 C 293.952 100.827,293.019 99.581,292.734 99.177 C 291.695 97.707,286.987 92.514,283.914 89.446 C 277.975 83.519,272.529 79.025,266.096 74.740 C 265.667 74.455,264.713 73.793,263.976 73.270 C 263.239 72.747,262.559 72.318,262.466 72.318 C 262.372 72.318,261.242 71.673,259.954 70.883 C 253.976 67.220,245.384 63.349,237.024 60.552 C 236.138 60.256,233.593 59.535,230.365 58.666 C 226.188 57.541,222.483 56.835,214.911 55.717 C 212.348 55.339,197.212 54.977,193.945 55.215 M185.274 90.638 C 186.427 91.339,187.604 92.019,187.889 92.148 C 188.175 92.277,188.642 92.535,188.927 92.722 C 190.218 93.563,194.147 95.848,194.304 95.848 C 194.399 95.848,195.097 96.239,195.853 96.716 C 199.201 98.829,201.043 99.656,201.650 99.319 C 203.444 98.323,205.639 97.573,210.230 96.389 C 213.077 95.655,222.245 95.641,225.031 96.367 C 226.127 96.652,227.345 96.886,227.739 96.886 C 229.403 96.886,235.389 99.158,239.716 101.432 C 246.238 104.860,256.692 113.897,256.739 116.148 C 256.744 116.370,256.870 116.603,257.021 116.667 C 258.398 117.248,263.322 128.298,263.322 130.806 C 263.322 131.314,263.465 132.182,263.641 132.734 C 263.817 133.286,264.053 134.299,264.167 134.985 C 264.350 136.093,269.145 139.792,270.399 139.792 C 270.510 139.792,271.805 140.540,273.278 141.453 C 274.750 142.366,276.188 143.223,276.472 143.358 C 276.757 143.492,277.768 144.069,278.720 144.641 C 279.671 145.213,280.956 145.915,281.574 146.201 C 283.261 146.982,283.176 147.398,280.377 152.069 C 280.146 152.454,279.844 153.002,279.706 153.287 C 279.567 153.573,278.782 154.916,277.962 156.272 C 277.142 157.628,276.471 158.913,276.471 159.127 C 276.471 159.341,276.315 159.516,276.125 159.516 C 275.934 159.516,275.779 159.674,275.779 159.868 C 275.779 160.063,275.414 160.802,274.968 161.512 C 274.523 162.222,273.760 163.521,273.272 164.399 L 272.385 165.994 273.412 168.897 C 273.976 170.493,274.582 172.422,274.757 173.183 C 274.933 173.945,275.231 175.190,275.419 175.952 C 277.158 182.973,274.615 198.098,270.561 204.844 C 270.390 205.130,269.919 205.986,269.514 206.747 C 269.110 207.509,268.408 208.627,267.954 209.233 C 267.500 209.839,267.128 210.488,267.128 210.675 C 267.128 210.862,267.006 211.067,266.857 211.130 C 266.708 211.194,265.871 212.180,264.997 213.322 C 263.262 215.588,258.482 220.299,256.885 221.317 C 256.334 221.669,255.804 222.038,255.709 222.137 C 255.120 222.754,252.143 224.567,251.720 224.567 C 251.440 224.567,251.211 224.694,251.211 224.849 C 251.211 225.130,249.087 226.149,245.848 227.421 C 243.850 228.206,242.068 228.617,238.350 229.149 L 235.696 229.530 234.210 232.152 C 233.392 233.595,231.900 236.143,230.894 237.815 C 229.889 239.487,229.066 240.930,229.066 241.023 C 229.066 241.115,228.701 241.771,228.255 242.481 C 227.809 243.191,226.934 244.706,226.310 245.848 C 225.686 246.990,225.041 248.069,224.877 248.247 C 224.614 248.532,223.016 247.860,220.818 246.540 C 220.501 246.349,219.308 245.649,218.166 244.983 C 217.024 244.317,215.779 243.584,215.398 243.354 C 215.017 243.124,214.394 242.778,214.014 242.585 C 213.633 242.392,212.154 241.540,210.727 240.692 C 205.711 237.712,205.243 237.517,204.392 238.050 C 198.697 241.620,184.793 242.382,176.245 239.591 C 174.835 239.131,173.541 238.754,173.370 238.754 C 173.084 238.754,169.024 237.012,167.820 236.372 C 162.526 233.558,157.943 230.236,154.601 226.788 C 151.799 223.896,150.186 222.054,150.179 221.738 C 150.175 221.608,149.975 221.297,149.733 221.045 C 146.809 218.005,142.576 207.377,142.555 203.023 C 142.548 201.454,142.467 201.376,138.408 199.005 C 136.410 197.838,134.542 196.734,134.256 196.551 C 133.971 196.369,133.075 195.875,132.266 195.453 C 131.458 195.032,130.796 194.559,130.796 194.402 C 130.796 194.246,130.494 194.118,130.124 194.118 C 129.755 194.118,129.350 193.952,129.226 193.750 C 129.101 193.548,128.663 193.235,128.254 193.055 C 127.387 192.673,125.246 191.402,124.232 190.668 C 123.555 190.177,123.245 188.927,123.800 188.927 C 123.948 188.927,124.250 188.499,124.470 187.976 C 124.915 186.918,126.283 184.494,128.579 180.697 C 129.418 179.311,130.104 178.101,130.104 178.009 C 130.104 177.916,130.469 177.260,130.914 176.550 C 132.940 173.324,133.966 171.161,133.802 170.462 C 133.707 170.056,133.318 168.867,132.937 167.820 C 130.660 161.555,129.914 154.838,130.813 148.683 C 131.339 145.086,132.224 141.056,132.572 140.675 C 132.737 140.494,132.872 140.071,132.872 139.735 C 132.872 138.397,136.180 131.572,138.697 127.718 C 140.928 124.303,144.152 120.488,146.939 117.968 C 148.221 116.808,152.141 113.841,152.390 113.841 C 152.496 113.841,153.601 113.218,154.844 112.457 C 156.088 111.696,157.305 111.073,157.549 111.073 C 157.793 111.073,158.141 110.934,158.322 110.764 C 158.961 110.165,164.227 108.597,167.289 108.094 C 170.660 107.541,171.111 107.281,172.135 105.299 C 172.509 104.573,173.491 102.811,174.316 101.384 C 176.022 98.434,175.895 98.651,178.006 95.077 C 178.874 93.607,179.585 92.244,179.585 92.049 C 179.585 91.855,179.730 91.696,179.907 91.696 C 180.085 91.696,180.334 91.367,180.462 90.966 C 181.188 88.678,181.966 88.625,185.274 90.638 " stroke="none" fill="#fbfbfb" fill-rule="evenodd"></path><path id="path4" d="M297.578 0.310 C 297.578 0.480,298.182 0.677,298.920 0.747 C 299.897 0.841,300.216 0.756,300.094 0.438 C 299.905 -0.054,297.578 -0.173,297.578 0.310 M295.069 0.936 C 295.497 1.019,296.198 1.019,296.626 0.936 C 297.054 0.854,296.704 0.786,295.848 0.786 C 294.991 0.786,294.641 0.854,295.069 0.936 M289.537 1.283 C 289.967 1.366,290.590 1.362,290.921 1.276 C 291.252 1.189,290.900 1.121,290.138 1.125 C 289.377 1.129,289.106 1.200,289.537 1.283 M286.419 1.628 C 286.847 1.711,287.548 1.711,287.976 1.628 C 288.404 1.546,288.054 1.478,287.197 1.478 C 286.341 1.478,285.990 1.546,286.419 1.628 M280.882 1.974 C 281.311 2.057,282.011 2.057,282.439 1.974 C 282.868 1.892,282.517 1.824,281.661 1.824 C 280.804 1.824,280.454 1.892,280.882 1.974 M268.426 3.012 C 268.854 3.095,269.554 3.095,269.983 3.012 C 270.411 2.930,270.061 2.862,269.204 2.862 C 268.348 2.862,267.997 2.930,268.426 3.012 M260.817 3.705 C 261.248 3.788,261.870 3.785,262.201 3.698 C 262.532 3.611,262.180 3.544,261.419 3.547 C 260.657 3.551,260.387 3.622,260.817 3.705 M255.450 4.045 C 255.783 4.132,256.328 4.132,256.661 4.045 C 256.994 3.958,256.721 3.887,256.055 3.887 C 255.389 3.887,255.117 3.958,255.450 4.045 M251.821 4.397 C 252.251 4.480,252.874 4.477,253.205 4.390 C 253.536 4.303,253.183 4.236,252.422 4.240 C 251.661 4.243,251.390 4.314,251.821 4.397 M248.706 4.743 C 249.137 4.826,249.760 4.823,250.091 4.736 C 250.421 4.649,250.069 4.582,249.308 4.586 C 248.547 4.589,248.276 4.660,248.706 4.743 M242.824 5.089 C 243.255 5.172,243.877 5.169,244.208 5.082 C 244.539 4.995,244.187 4.928,243.426 4.932 C 242.664 4.935,242.394 5.006,242.824 5.089 M240.056 5.435 C 240.486 5.518,241.109 5.515,241.440 5.428 C 241.771 5.341,241.419 5.274,240.657 5.278 C 239.896 5.281,239.626 5.352,240.056 5.435 M234.516 5.781 C 234.944 5.863,235.644 5.863,236.073 5.781 C 236.501 5.698,236.151 5.631,235.294 5.631 C 234.438 5.631,234.087 5.698,234.516 5.781 M222.059 6.819 C 222.487 6.901,223.188 6.901,223.616 6.819 C 224.044 6.736,223.694 6.669,222.837 6.669 C 221.981 6.669,221.631 6.736,222.059 6.819 M217.388 7.159 C 217.721 7.246,218.266 7.246,218.599 7.159 C 218.932 7.072,218.659 7.001,217.993 7.001 C 217.327 7.001,217.054 7.072,217.388 7.159 M214.104 7.511 C 214.535 7.594,215.158 7.591,215.488 7.504 C 215.819 7.418,215.467 7.350,214.706 7.354 C 213.945 7.358,213.674 7.428,214.104 7.511 M208.222 7.857 C 208.652 7.940,209.275 7.937,209.606 7.850 C 209.937 7.764,209.585 7.696,208.824 7.700 C 208.062 7.704,207.792 7.774,208.222 7.857 M205.108 8.203 C 205.538 8.286,206.161 8.283,206.492 8.196 C 206.823 8.110,206.471 8.042,205.709 8.046 C 204.948 8.050,204.677 8.120,205.108 8.203 M201.990 8.549 C 202.418 8.631,203.119 8.631,203.547 8.549 C 203.975 8.466,203.625 8.399,202.768 8.399 C 201.912 8.399,201.561 8.466,201.990 8.549 M196.457 8.895 C 196.888 8.978,197.511 8.975,197.841 8.888 C 198.172 8.802,197.820 8.734,197.059 8.738 C 196.298 8.742,196.027 8.812,196.457 8.895 M193.339 9.241 C 193.767 9.323,194.468 9.323,194.896 9.241 C 195.324 9.158,194.974 9.091,194.118 9.091 C 193.261 9.091,192.911 9.158,193.339 9.241 M188.499 9.587 C 188.929 9.670,189.552 9.667,189.883 9.580 C 190.214 9.494,189.862 9.426,189.100 9.430 C 188.339 9.434,188.068 9.505,188.499 9.587 M192.820 55.265 C 193.343 55.344,194.200 55.344,194.723 55.265 C 195.247 55.186,194.818 55.121,193.772 55.121 C 192.725 55.121,192.297 55.186,192.820 55.265 M208.224 55.268 C 208.846 55.345,209.780 55.343,210.300 55.265 C 210.820 55.186,210.311 55.123,209.170 55.125 C 208.028 55.126,207.602 55.191,208.224 55.268 M61.159 74.302 C 61.968 74.375,63.292 74.375,64.100 74.302 C 64.909 74.229,64.247 74.169,62.630 74.169 C 61.012 74.169,60.350 74.229,61.159 74.302 M51.817 74.645 C 52.435 74.722,53.447 74.722,54.066 74.645 C 54.684 74.568,54.178 74.505,52.941 74.505 C 51.704 74.505,51.198 74.568,51.817 74.645 M41.662 75.567 C 41.561 75.831,42.173 77.366,43.023 78.977 C 45.621 83.902,45.392 83.462,48.366 89.273 C 49.681 91.843,51.949 96.256,53.406 99.080 C 56.364 104.813,56.255 104.449,55.511 106.176 C 55.211 106.871,54.764 107.907,54.516 108.478 C 54.118 109.397,53.386 111.242,52.595 113.322 C 51.514 116.164,51.079 117.273,50.657 118.264 C 50.391 118.889,50.173 119.698,50.173 120.061 C 50.173 120.423,50.031 120.808,49.857 120.916 C 49.683 121.023,49.431 121.766,49.295 122.566 C 49.160 123.367,48.932 124.261,48.789 124.554 C 48.646 124.847,48.291 125.943,47.999 126.990 C 47.708 128.036,47.221 129.763,46.918 130.826 C 46.615 131.890,46.367 133.107,46.367 133.531 C 46.367 133.955,46.195 134.623,45.985 135.015 C 45.612 135.712,45.294 137.318,44.627 141.869 C 44.446 143.106,44.140 144.569,43.948 145.121 C 43.756 145.673,43.599 146.841,43.599 147.718 C 43.599 148.595,43.440 149.856,43.245 150.521 C 41.721 155.735,41.631 183.240,43.110 191.474 C 43.379 192.970,43.599 194.792,43.599 195.523 C 43.599 196.254,43.832 197.749,44.118 198.845 C 44.403 199.941,44.637 201.418,44.637 202.128 C 44.637 202.838,44.792 203.516,44.983 203.633 C 45.173 203.751,45.329 204.365,45.329 204.998 C 45.329 205.631,45.546 206.906,45.812 207.832 C 46.673 210.833,47.113 212.605,47.302 213.841 C 47.403 214.507,47.610 215.208,47.761 215.398 C 47.912 215.588,48.147 216.367,48.284 217.128 C 48.421 217.889,48.648 218.668,48.789 218.858 C 48.930 219.048,49.157 219.827,49.294 220.588 C 49.431 221.349,49.664 222.128,49.812 222.318 C 49.959 222.509,50.164 223.054,50.266 223.529 C 50.504 224.640,52.129 229.055,52.589 229.840 C 52.783 230.170,52.941 230.614,52.941 230.825 C 52.941 231.037,53.186 231.779,53.486 232.474 C 54.313 234.392,54.882 235.723,55.285 236.678 C 56.591 239.779,60.326 247.340,81.608 289.965 L 105.363 337.543 107.785 337.652 C 109.118 337.712,111.998 337.577,114.187 337.351 C 116.375 337.126,121.202 336.814,124.913 336.657 C 133.793 336.283,145.653 335.583,160.035 334.586 C 163.080 334.375,168.417 334.068,171.895 333.904 C 175.373 333.739,178.535 333.504,178.922 333.382 C 179.309 333.259,183.159 333.026,187.477 332.865 C 199.773 332.405,211.703 331.594,218.339 330.765 C 219.957 330.563,222.292 330.282,223.529 330.139 C 226.070 329.846,229.357 329.230,232.203 328.513 C 233.262 328.246,234.537 328.028,235.037 328.028 C 235.537 328.028,236.042 327.872,236.159 327.682 C 236.277 327.491,236.870 327.336,237.477 327.337 C 238.084 327.338,239.282 327.122,240.138 326.856 C 240.995 326.590,242.495 326.122,243.472 325.816 C 244.449 325.510,245.569 325.260,245.960 325.260 C 246.352 325.260,246.757 325.121,246.862 324.953 C 246.966 324.784,247.637 324.536,248.353 324.403 C 249.068 324.269,249.810 324.039,250.000 323.891 C 250.190 323.743,250.735 323.539,251.211 323.438 C 252.057 323.258,253.090 322.913,255.882 321.882 C 258.212 321.021,258.957 320.717,259.976 320.210 C 260.515 319.942,261.114 319.723,261.308 319.723 C 261.502 319.723,262.229 319.471,262.923 319.162 C 266.076 317.762,268.034 316.854,268.512 316.568 C 268.798 316.398,269.265 316.170,269.550 316.063 C 270.068 315.867,274.784 313.526,276.454 312.635 C 276.939 312.377,277.569 312.073,277.855 311.961 C 278.140 311.849,278.841 311.456,279.412 311.088 C 279.983 310.720,281.112 310.071,281.920 309.646 C 282.729 309.221,283.391 308.746,283.391 308.589 C 283.391 308.433,283.597 308.304,283.849 308.304 C 284.360 308.304,290.764 304.188,290.946 303.743 C 291.009 303.587,291.206 303.460,291.384 303.460 C 291.652 303.460,295.156 301.087,296.367 300.086 C 296.557 299.929,297.920 298.909,299.396 297.820 C 306.676 292.449,318.536 281.092,324.761 273.529 C 325.701 272.388,326.559 271.375,326.667 271.280 C 326.775 271.185,327.548 270.173,328.385 269.031 C 329.222 267.889,330.511 266.215,331.249 265.311 L 332.590 263.668 337.143 263.658 C 339.647 263.653,344.810 263.423,348.616 263.147 C 352.422 262.871,357.503 262.642,359.906 262.637 C 364.606 262.629,365.219 262.417,364.677 260.986 C 364.321 260.046,364.011 259.950,364.247 260.852 C 364.487 261.771,363.968 261.882,358.404 262.099 C 346.026 262.582,332.315 263.464,331.875 263.805 C 331.611 264.008,330.531 265.345,329.474 266.776 C 320.108 279.451,304.860 293.980,291.699 302.768 C 291.272 303.054,290.311 303.721,289.565 304.251 C 287.157 305.961,283.195 308.336,277.163 311.686 C 272.726 314.150,264.954 317.796,260.366 319.565 C 259.042 320.076,257.180 320.801,256.228 321.176 C 255.277 321.552,254.031 321.988,253.460 322.145 C 252.432 322.428,250.642 323.036,249.308 323.557 C 247.822 324.136,239.247 326.525,236.851 327.028 C 223.018 329.927,213.281 331.110,197.059 331.861 C 193.824 332.011,187.206 332.367,182.353 332.653 C 177.500 332.939,171.972 333.265,170.069 333.377 C 165.388 333.652,152.628 334.499,145.848 334.984 C 142.803 335.202,137.664 335.504,134.429 335.654 C 125.464 336.070,110.833 336.943,108.249 337.216 L 105.945 337.459 81.560 288.539 C 68.149 261.633,56.865 238.919,56.486 238.062 C 56.106 237.206,55.446 235.649,55.019 234.602 C 54.592 233.555,54.028 232.208,53.765 231.609 C 53.502 231.009,53.287 230.278,53.287 229.985 C 53.287 229.692,53.143 229.364,52.968 229.255 C 52.792 229.147,52.539 228.559,52.405 227.949 C 52.271 227.338,52.034 226.601,51.879 226.309 C 51.608 225.799,50.201 221.571,49.012 217.694 C 48.699 216.673,48.443 215.553,48.443 215.206 C 48.443 214.858,48.287 214.477,48.097 214.360 C 47.907 214.242,47.751 213.819,47.751 213.418 C 47.751 213.018,47.531 211.898,47.262 210.930 C 46.518 208.250,45.954 205.875,45.651 204.152 C 45.500 203.296,45.133 201.194,44.834 199.481 C 41.800 182.105,41.800 161.148,44.834 143.772 C 45.133 142.059,45.496 139.957,45.642 139.100 C 45.788 138.244,46.076 136.920,46.284 136.159 C 46.491 135.398,46.935 133.529,47.271 132.007 C 47.607 130.484,48.008 129.091,48.162 128.910 C 48.317 128.729,48.443 128.306,48.443 127.971 C 48.443 127.635,48.680 126.615,48.970 125.704 C 49.260 124.794,49.751 123.192,50.062 122.145 C 50.372 121.099,50.836 119.752,51.092 119.152 C 51.348 118.552,51.557 117.822,51.557 117.529 C 51.557 117.236,51.713 116.900,51.903 116.782 C 52.093 116.664,52.249 116.328,52.249 116.035 C 52.249 115.742,52.462 115.012,52.721 114.412 C 52.981 113.812,53.467 112.621,53.801 111.765 C 54.581 109.765,54.821 109.185,55.715 107.146 C 56.786 104.702,56.685 103.984,54.764 100.346 C 47.067 85.768,42.537 76.789,42.724 76.485 C 42.822 76.327,42.631 76.086,42.299 75.951 C 41.746 75.725,41.754 75.680,42.388 75.420 C 42.991 75.172,43.001 75.132,42.463 75.111 C 42.124 75.097,41.764 75.303,41.662 75.567 M125.065 83.824 L 124.048 84.948 125.173 83.932 C 126.221 82.984,126.457 82.699,126.189 82.699 C 126.130 82.699,125.624 83.205,125.065 83.824 M280.031 85.674 C 281.403 86.929,283.983 89.459,285.763 91.296 C 288.536 94.157,288.675 94.264,286.734 92.042 C 284.610 89.610,278.131 83.391,277.722 83.391 C 277.620 83.391,278.659 84.418,280.031 85.674 M181.253 89.583 C 180.945 89.943,180.589 90.566,180.462 90.966 C 180.334 91.367,180.085 91.696,179.907 91.696 C 179.730 91.696,179.585 91.855,179.585 92.049 C 179.585 92.244,178.874 93.607,178.006 95.077 C 175.895 98.651,176.022 98.434,174.316 101.384 C 173.491 102.811,172.509 104.573,172.135 105.299 C 171.111 107.281,170.660 107.541,167.289 108.094 C 164.227 108.597,158.961 110.165,158.322 110.764 C 158.141 110.934,157.793 111.073,157.549 111.073 C 157.305 111.073,156.088 111.696,154.844 112.457 C 153.601 113.218,152.496 113.841,152.390 113.841 C 152.141 113.841,148.221 116.808,146.939 117.968 C 144.152 120.488,140.928 124.303,138.697 127.718 C 136.180 131.572,132.872 138.397,132.872 139.735 C 132.872 140.071,132.737 140.494,132.572 140.675 C 132.224 141.056,131.339 145.086,130.813 148.683 C 129.914 154.838,130.660 161.555,132.937 167.820 C 133.318 168.867,133.707 170.056,133.802 170.462 C 133.966 171.161,132.940 173.324,130.914 176.550 C 130.469 177.260,130.104 177.916,130.104 178.009 C 130.104 178.101,129.418 179.311,128.579 180.697 C 126.283 184.494,124.915 186.918,124.470 187.976 C 124.250 188.499,123.948 188.927,123.800 188.927 C 123.245 188.927,123.555 190.177,124.232 190.668 C 125.246 191.402,127.387 192.673,128.254 193.055 C 128.663 193.235,129.101 193.548,129.226 193.750 C 129.350 193.952,129.755 194.118,130.124 194.118 C 130.494 194.118,130.796 194.246,130.796 194.402 C 130.796 194.559,131.458 195.032,132.266 195.453 C 133.075 195.875,133.971 196.369,134.256 196.551 C 134.542 196.734,136.410 197.838,138.408 199.005 C 142.467 201.376,142.548 201.454,142.555 203.023 C 142.576 207.377,146.809 218.005,149.733 221.045 C 149.975 221.297,150.175 221.608,150.179 221.738 C 150.186 222.054,151.799 223.896,154.601 226.788 C 157.943 230.236,162.526 233.558,167.820 236.372 C 169.024 237.012,173.084 238.754,173.370 238.754 C 173.541 238.754,174.835 239.131,176.245 239.591 C 184.793 242.382,198.697 241.620,204.392 238.050 C 205.243 237.517,205.711 237.712,210.727 240.692 C 212.154 241.540,213.633 242.392,214.014 242.585 C 214.394 242.778,215.017 243.124,215.398 243.354 C 215.779 243.584,217.024 244.317,218.166 244.983 C 219.308 245.649,220.501 246.349,220.818 246.540 C 223.016 247.860,224.614 248.532,224.877 248.247 C 225.041 248.069,225.686 246.990,226.310 245.848 C 226.934 244.706,227.809 243.191,228.255 242.481 C 228.701 241.771,229.066 241.115,229.066 241.023 C 229.066 240.930,229.889 239.487,230.894 237.815 C 231.900 236.143,233.392 233.595,234.210 232.152 L 235.696 229.530 238.350 229.149 C 242.068 228.617,243.850 228.206,245.848 227.421 C 249.087 226.149,251.211 225.130,251.211 224.849 C 251.211 224.694,251.440 224.567,251.720 224.567 C 252.143 224.567,255.120 222.754,255.709 222.137 C 255.804 222.038,256.334 221.669,256.885 221.317 C 258.482 220.299,263.262 215.588,264.997 213.322 C 265.871 212.180,266.708 211.194,266.857 211.130 C 267.006 211.067,267.128 210.862,267.128 210.675 C 267.128 210.488,267.500 209.839,267.954 209.233 C 268.408 208.627,269.110 207.509,269.514 206.747 C 269.919 205.986,270.390 205.130,270.561 204.844 C 274.615 198.098,277.158 182.973,275.419 175.952 C 275.231 175.190,274.933 173.945,274.757 173.183 C 274.582 172.422,273.976 170.493,273.412 168.897 L 272.385 165.994 273.272 164.399 C 273.760 163.521,274.523 162.222,274.968 161.512 C 275.414 160.802,275.779 160.063,275.779 159.868 C 275.779 159.674,275.934 159.516,276.125 159.516 C 276.315 159.516,276.471 159.341,276.471 159.127 C 276.471 158.913,277.142 157.628,277.962 156.272 C 278.782 154.916,279.567 153.573,279.706 153.287 C 279.844 153.002,280.146 152.454,280.377 152.069 C 283.176 147.398,283.261 146.982,281.574 146.201 C 280.956 145.915,279.671 145.213,278.720 144.641 C 277.768 144.069,276.757 143.492,276.472 143.358 C 276.188 143.223,274.750 142.366,273.278 141.453 C 271.805 140.540,270.510 139.792,270.399 139.792 C 269.145 139.792,264.350 136.093,264.167 134.985 C 264.053 134.299,263.817 133.286,263.641 132.734 C 263.465 132.182,263.322 131.314,263.322 130.806 C 263.322 129.982,262.711 127.724,261.962 125.779 C 260.912 123.049,257.578 116.902,257.021 116.667 C 256.870 116.603,256.744 116.370,256.739 116.148 C 256.692 113.897,246.238 104.860,239.716 101.432 C 235.389 99.158,229.403 96.886,227.739 96.886 C 227.345 96.886,226.127 96.652,225.031 96.367 C 222.245 95.641,213.077 95.655,210.230 96.389 C 205.639 97.573,203.444 98.323,201.650 99.319 C 201.043 99.656,199.201 98.829,195.853 96.716 C 195.097 96.239,194.399 95.848,194.304 95.848 C 194.147 95.848,190.218 93.563,188.927 92.722 C 188.642 92.535,188.175 92.277,187.889 92.148 C 187.604 92.019,186.427 91.339,185.274 90.638 C 182.462 88.927,181.934 88.788,181.253 89.583 M183.391 90.138 C 183.628 90.424,183.942 90.657,184.090 90.657 C 184.238 90.657,185.384 91.280,186.637 92.042 C 187.890 92.803,189.010 93.426,189.127 93.426 C 189.244 93.426,189.829 93.776,190.426 94.204 C 191.024 94.632,191.840 95.155,192.240 95.366 C 194.412 96.509,197.913 98.476,199.042 99.187 C 200.530 100.125,201.286 100.193,202.654 99.513 C 211.313 95.208,223.837 95.265,234.775 99.659 C 235.156 99.812,235.701 100.028,235.986 100.139 C 236.272 100.251,236.739 100.481,237.024 100.652 C 237.310 100.822,238.166 101.252,238.927 101.606 C 239.689 101.960,240.363 102.366,240.427 102.509 C 240.490 102.651,240.739 102.768,240.980 102.768 C 241.221 102.768,242.064 103.235,242.852 103.806 C 243.640 104.377,244.375 104.844,244.485 104.844 C 244.596 104.844,244.889 105.039,245.138 105.277 C 245.387 105.515,245.939 105.943,246.365 106.228 C 249.648 108.426,257.439 116.933,257.439 118.319 C 257.439 118.520,257.571 118.685,257.731 118.685 C 258.090 118.685,261.246 125.019,261.246 125.739 C 261.246 126.024,261.388 126.345,261.562 126.452 C 261.735 126.559,261.987 127.308,262.120 128.116 C 262.253 128.924,262.480 129.740,262.625 129.931 C 262.769 130.121,262.996 131.423,263.129 132.823 C 263.399 135.661,263.823 136.864,264.662 137.173 C 264.971 137.288,265.536 137.573,265.917 137.808 C 266.298 138.043,267.543 138.780,268.685 139.446 C 269.827 140.112,271.073 140.846,271.453 141.076 C 271.834 141.307,272.379 141.608,272.664 141.746 C 273.138 141.975,276.957 144.205,278.201 144.980 C 278.486 145.157,279.401 145.657,280.233 146.090 C 282.557 147.300,282.541 147.448,279.569 152.422 C 278.887 153.564,278.223 154.732,278.094 155.017 C 277.965 155.303,277.707 155.770,277.521 156.055 C 276.904 157.002,274.527 161.064,274.281 161.592 C 274.148 161.877,273.569 162.889,272.995 163.841 C 271.459 166.384,271.467 166.319,272.449 168.211 C 272.948 169.173,273.356 170.195,273.356 170.481 C 273.356 170.768,273.568 171.493,273.826 172.093 C 275.298 175.507,275.926 185.483,274.937 189.744 C 274.639 191.031,274.394 192.446,274.394 192.888 C 274.394 193.331,274.162 194.139,273.878 194.684 C 273.593 195.229,273.360 196.094,273.359 196.606 C 273.357 197.118,273.201 197.633,273.010 197.751 C 272.820 197.868,272.664 198.203,272.664 198.494 C 272.664 198.785,272.197 200.032,271.626 201.266 C 271.055 202.499,270.588 203.573,270.588 203.651 C 270.588 203.730,269.994 204.770,269.268 205.963 C 268.542 207.156,267.842 208.365,267.713 208.651 C 267.396 209.353,266.719 210.368,266.090 211.085 C 265.804 211.410,264.792 212.651,263.841 213.841 C 262.000 216.143,256.067 221.581,254.656 222.258 C 254.379 222.392,253.374 222.970,252.422 223.544 C 250.858 224.488,248.005 225.893,246.194 226.612 C 243.429 227.709,241.576 228.156,237.674 228.672 C 235.312 228.983,234.951 229.318,233.145 232.872 C 232.709 233.728,232.158 234.635,231.920 234.886 C 231.683 235.138,231.488 235.482,231.488 235.651 C 231.488 235.820,230.867 236.938,230.107 238.135 C 229.348 239.332,228.725 240.506,228.723 240.744 C 228.721 240.982,228.575 241.176,228.397 241.176 C 228.220 241.176,227.969 241.509,227.840 241.915 C 227.711 242.321,227.001 243.605,226.263 244.769 C 225.524 245.933,224.919 247.080,224.917 247.318 C 224.912 247.995,223.987 247.830,222.491 246.886 C 221.738 246.410,220.962 246.021,220.768 246.021 C 220.574 246.021,220.415 245.876,220.415 245.698 C 220.415 245.521,220.074 245.267,219.657 245.135 C 219.240 245.002,217.955 244.320,216.802 243.618 C 215.649 242.917,214.472 242.237,214.187 242.108 C 213.901 241.979,213.434 241.721,213.149 241.535 C 211.436 240.418,207.900 238.408,207.649 238.408 C 207.485 238.408,207.157 238.175,206.920 237.889 C 206.384 237.243,204.533 237.215,203.624 237.839 C 203.248 238.097,202.552 238.392,202.076 238.496 C 201.600 238.599,200.744 238.848,200.173 239.048 C 196.157 240.458,194.993 240.610,188.408 240.587 C 183.309 240.569,181.485 240.439,180.277 240.010 C 179.420 239.705,178.408 239.455,178.028 239.453 C 177.305 239.450,174.621 238.629,172.837 237.866 C 172.266 237.621,171.176 237.164,170.415 236.848 C 163.382 233.936,155.901 228.293,151.617 222.670 C 150.746 221.525,149.936 220.510,149.818 220.415 C 149.700 220.320,149.496 220.009,149.365 219.723 C 149.234 219.438,148.827 218.737,148.461 218.166 C 146.017 214.361,144.013 208.851,143.186 203.665 L 142.749 200.929 141.011 199.824 C 140.055 199.217,138.339 198.203,137.197 197.572 C 136.055 196.941,134.145 195.828,132.952 195.098 C 131.760 194.369,130.711 193.772,130.623 193.772 C 130.534 193.772,129.444 193.149,128.201 192.388 C 126.957 191.626,125.855 191.003,125.751 191.003 C 125.647 191.003,125.204 190.733,124.766 190.403 L 123.970 189.802 124.701 188.573 C 125.103 187.897,125.621 187.039,125.852 186.665 C 126.083 186.292,126.628 185.285,127.063 184.429 C 127.498 183.573,128.049 182.666,128.287 182.415 C 128.525 182.163,128.720 181.789,128.720 181.582 C 128.720 181.376,129.074 180.725,129.507 180.136 C 129.941 179.548,130.602 178.443,130.978 177.682 C 131.354 176.920,131.764 176.219,131.889 176.124 C 133.750 174.704,134.841 170.000,133.693 168.349 C 133.432 167.973,133.218 167.343,133.218 166.947 C 133.218 166.552,133.079 166.080,132.908 165.900 C 132.586 165.557,132.043 163.461,131.434 160.208 C 131.012 157.952,131.266 147.016,131.775 145.502 C 132.140 144.416,132.785 141.961,133.094 140.484 C 133.193 140.009,133.483 139.152,133.739 138.581 C 133.995 138.010,134.468 136.920,134.789 136.159 C 136.557 131.967,137.628 130.089,140.509 126.128 C 143.350 122.222,149.161 116.263,150.129 116.263 C 150.312 116.263,150.513 116.127,150.577 115.960 C 150.722 115.578,155.542 112.457,155.987 112.457 C 156.168 112.457,156.510 112.223,156.747 111.938 C 156.984 111.652,157.453 111.419,157.788 111.419 C 158.124 111.419,158.844 111.186,159.390 110.902 C 159.935 110.617,160.622 110.384,160.917 110.383 C 161.212 110.382,161.601 110.241,161.782 110.071 C 162.244 109.636,165.110 108.993,168.135 108.645 C 170.587 108.363,172.246 107.370,172.306 106.148 C 172.313 106.009,172.941 104.877,173.702 103.633 C 174.464 102.389,175.087 101.300,175.087 101.211 C 175.087 101.123,175.683 100.074,176.413 98.882 C 177.142 97.689,178.171 95.934,178.699 94.983 C 181.720 89.539,182.352 88.886,183.391 90.138 M295.148 102.412 C 295.551 102.977,296.057 103.548,296.273 103.682 C 296.489 103.815,296.229 103.353,295.696 102.654 C 294.540 101.138,294.104 100.945,295.148 102.412 M349.069 103.979 C 349.244 104.360,349.474 104.905,349.580 105.190 C 349.746 105.639,349.776 105.636,349.800 105.170 C 349.815 104.873,349.585 104.328,349.289 103.959 C 348.759 103.298,348.756 103.298,349.069 103.979 M298.270 106.920 C 299.220 108.254,299.445 108.256,298.686 106.923 C 298.362 106.353,297.970 105.886,297.814 105.885 C 297.658 105.883,297.863 106.349,298.270 106.920 M102.855 110.284 C 102.617 110.369,102.422 110.662,102.422 110.935 C 102.422 111.377,101.753 112.648,100.432 114.719 C 100.193 115.092,99.861 115.709,99.693 116.090 C 99.526 116.471,98.358 118.908,97.099 121.507 C 95.840 124.106,94.810 126.449,94.810 126.715 C 94.810 126.980,94.673 127.345,94.506 127.526 C 94.339 127.707,93.848 128.867,93.415 130.104 C 92.981 131.341,92.268 133.365,91.830 134.602 C 91.391 135.839,91.026 137.192,91.018 137.609 C 91.010 138.026,90.848 138.464,90.657 138.581 C 90.467 138.699,90.311 139.123,90.311 139.523 C 90.311 139.923,90.092 141.043,89.823 142.011 C 88.819 145.630,88.235 148.420,88.235 149.602 C 88.235 150.272,88.072 151.250,87.872 151.777 C 86.513 155.349,86.522 180.145,87.883 182.687 C 88.077 183.049,88.233 184.018,88.231 184.839 C 88.228 185.660,88.471 187.500,88.770 188.927 C 90.290 196.184,90.575 197.418,91.450 200.519 C 91.719 201.471,92.221 203.261,92.565 204.498 C 93.369 207.385,95.083 212.772,95.482 213.668 C 95.652 214.048,96.211 215.606,96.724 217.128 C 97.237 218.651,97.852 220.363,98.089 220.934 C 98.327 221.505,98.796 222.673,99.132 223.529 C 99.467 224.386,99.944 225.554,100.191 226.125 C 100.438 226.696,100.896 227.785,101.209 228.547 C 102.931 232.743,103.901 234.957,106.061 239.619 C 107.622 242.991,111.484 251.029,112.794 253.633 C 116.449 260.903,121.600 270.819,124.568 276.298 C 125.905 278.766,128.952 284.529,130.331 287.197 C 130.872 288.244,131.393 289.178,131.488 289.273 C 131.583 289.369,131.833 289.758,132.044 290.138 C 132.735 291.389,157.621 290.771,182.526 288.886 C 185.000 288.699,188.769 288.415,190.902 288.256 C 195.422 287.917,200.940 287.219,210.554 285.770 C 215.538 285.019,222.993 283.550,225.386 282.847 C 226.312 282.575,227.313 282.353,227.610 282.353 C 227.908 282.353,228.630 282.202,229.214 282.018 C 229.799 281.834,231.211 281.429,232.353 281.117 C 235.154 280.353,237.741 279.554,238.581 279.193 C 238.962 279.030,240.285 278.583,241.522 278.201 C 242.760 277.818,244.083 277.372,244.464 277.209 C 244.844 277.046,245.745 276.657,246.465 276.346 C 247.185 276.034,247.916 275.779,248.088 275.779 C 248.752 275.779,257.554 271.552,261.765 269.212 C 271.755 263.659,282.690 254.744,289.360 246.713 C 290.704 245.095,291.977 243.616,292.190 243.426 C 292.894 242.796,297.578 236.365,297.578 236.028 C 297.578 235.847,297.695 235.646,297.837 235.582 C 298.118 235.458,301.384 230.630,301.384 230.340 C 301.384 230.243,301.929 229.337,302.595 228.325 C 303.789 226.513,304.107 225.725,303.493 226.105 C 303.230 226.267,298.629 233.462,297.362 235.691 C 297.149 236.067,296.679 236.715,296.318 237.132 C 295.957 237.548,295.301 238.473,294.861 239.187 C 294.421 239.901,293.952 240.484,293.818 240.484 C 293.684 240.484,293.286 240.973,292.933 241.570 C 292.581 242.168,292.041 242.925,291.734 243.253 C 291.427 243.581,290.453 244.688,289.570 245.714 C 287.963 247.578,281.483 254.091,278.547 256.794 C 275.964 259.172,266.454 266.090,265.769 266.090 C 265.611 266.090,265.301 266.309,265.078 266.577 C 264.856 266.845,264.175 267.316,263.565 267.625 C 262.956 267.933,262.184 268.337,261.851 268.522 C 260.408 269.323,259.950 269.567,258.478 270.316 C 257.621 270.751,256.869 271.224,256.805 271.367 C 256.742 271.510,256.410 271.626,256.069 271.626 C 255.727 271.626,255.254 271.860,255.017 272.145 C 254.780 272.431,254.421 272.664,254.219 272.664 C 254.017 272.664,253.180 272.976,252.358 273.356 C 251.537 273.737,250.203 274.334,249.394 274.682 C 248.586 275.031,247.335 275.576,246.615 275.893 C 245.894 276.211,245.090 276.471,244.826 276.471 C 244.562 276.471,243.906 276.695,243.367 276.968 C 242.828 277.242,241.453 277.731,240.311 278.054 C 239.170 278.378,238.080 278.736,237.889 278.852 C 236.637 279.610,221.729 283.323,216.955 284.066 C 213.443 284.613,210.217 285.181,208.997 285.469 C 207.559 285.808,202.442 286.464,198.097 286.867 C 196.384 287.026,194.144 287.321,193.119 287.522 C 192.094 287.724,189.866 287.889,188.168 287.889 C 186.471 287.889,184.429 288.039,183.631 288.222 C 182.265 288.535,171.228 289.166,161.592 289.481 C 159.213 289.559,151.940 289.875,145.430 290.183 C 131.998 290.819,132.976 290.925,131.834 288.705 C 131.358 287.781,130.852 286.972,130.709 286.909 C 130.567 286.845,130.450 286.504,130.450 286.151 C 130.450 285.797,130.309 285.421,130.137 285.315 C 129.966 285.209,129.285 284.071,128.625 282.786 C 125.059 275.847,124.379 274.552,124.221 274.394 C 124.126 274.299,123.690 273.521,123.253 272.664 C 120.835 267.929,116.363 259.340,115.866 258.478 C 115.701 258.192,115.477 257.725,115.367 257.439 C 115.257 257.154,114.866 256.375,114.498 255.709 C 114.130 255.043,113.273 253.330,112.594 251.903 C 111.915 250.476,110.906 248.411,110.352 247.316 C 108.840 244.324,108.822 244.287,107.701 241.869 C 106.279 238.798,104.872 235.694,104.290 234.343 C 104.024 233.724,103.568 232.675,103.278 232.012 C 101.849 228.751,99.632 223.311,98.622 220.588 C 98.481 220.208,98.131 219.351,97.845 218.684 C 97.559 218.017,97.214 216.968,97.078 216.352 C 96.943 215.736,96.689 215.144,96.513 215.035 C 96.338 214.927,96.194 214.541,96.194 214.178 C 96.194 213.815,95.973 213.007,95.703 212.382 C 95.434 211.757,94.946 210.311,94.621 209.170 C 94.295 208.028,93.893 206.946,93.727 206.765 C 93.561 206.584,93.425 206.039,93.423 205.554 C 93.422 205.068,93.189 204.225,92.904 203.680 C 92.620 203.135,92.388 202.307,92.388 201.841 C 92.388 201.374,92.203 200.652,91.978 200.237 C 91.577 199.498,91.352 198.516,90.614 194.291 C 90.414 193.149,90.109 192.067,89.935 191.886 C 89.761 191.705,89.619 191.003,89.619 190.326 C 89.619 189.650,89.452 188.552,89.246 187.887 C 89.041 187.222,88.743 185.355,88.583 183.737 C 88.424 182.119,88.131 180.095,87.933 179.239 C 87.350 176.715,87.447 157.016,88.055 154.498 C 88.331 153.356,88.563 151.799,88.571 151.038 C 88.579 150.277,88.752 149.053,88.956 148.318 C 89.160 147.582,89.465 146.259,89.634 145.376 C 89.802 144.494,90.192 142.760,90.501 141.522 C 90.810 140.285,91.146 138.806,91.249 138.235 C 91.352 137.664,91.594 137.000,91.787 136.758 C 91.979 136.517,92.256 135.738,92.402 135.028 C 92.645 133.850,94.022 129.887,94.775 128.201 C 94.945 127.820,95.427 126.652,95.846 125.606 C 96.635 123.634,101.065 114.492,101.379 114.187 C 101.719 113.856,103.527 110.332,103.407 110.231 C 103.341 110.175,103.093 110.199,102.855 110.284 M351.582 110.208 C 351.582 110.398,351.804 110.943,352.076 111.419 C 352.348 111.894,352.571 112.128,352.571 111.938 C 352.571 111.747,352.348 111.202,352.076 110.727 C 351.804 110.251,351.582 110.017,351.582 110.208 M302.941 114.533 C 303.236 115.104,303.556 115.571,303.651 115.571 C 303.746 115.571,303.582 115.104,303.287 114.533 C 302.992 113.962,302.673 113.495,302.577 113.495 C 302.482 113.495,302.646 113.962,302.941 114.533 M307.627 123.578 C 307.619 123.700,307.920 124.479,308.297 125.308 C 308.673 126.138,308.978 126.583,308.974 126.298 C 308.968 125.790,307.656 123.141,307.627 123.578 M358.526 133.218 C 358.526 133.503,358.660 134.048,358.824 134.429 C 359.011 134.865,359.121 134.929,359.121 134.602 C 359.121 134.317,358.987 133.772,358.824 133.391 C 358.636 132.955,358.526 132.891,358.526 133.218 M359.739 139.100 C 360.013 140.593,360.209 140.874,360.202 139.764 C 360.199 139.304,360.044 138.694,359.857 138.408 C 359.617 138.043,359.582 138.248,359.739 139.100 M360.232 142.589 C 360.245 143.049,360.397 143.737,360.570 144.118 C 360.788 144.600,360.819 144.390,360.673 143.426 C 360.428 141.819,360.197 141.380,360.232 142.589 M314.582 143.945 C 314.582 144.230,314.715 144.775,314.879 145.156 C 315.066 145.592,315.176 145.656,315.176 145.329 C 315.176 145.043,315.042 144.498,314.879 144.118 C 314.691 143.681,314.582 143.617,314.582 143.945 M360.994 147.059 C 360.994 147.915,361.061 148.266,361.144 147.837 C 361.226 147.409,361.226 146.708,361.144 146.280 C 361.061 145.852,360.994 146.202,360.994 147.059 M361.672 152.941 C 361.672 153.607,361.743 153.880,361.830 153.547 C 361.917 153.214,361.917 152.669,361.830 152.336 C 361.743 152.003,361.672 152.275,361.672 152.941 M362.037 156.574 C 362.039 157.526,362.106 157.874,362.186 157.348 C 362.266 156.822,362.263 156.044,362.181 155.618 C 362.099 155.192,362.034 155.623,362.037 156.574 M317.400 162.111 C 317.403 163.062,317.470 163.410,317.549 162.885 C 317.629 162.359,317.627 161.580,317.545 161.154 C 317.462 160.729,317.397 161.159,317.400 162.111 M362.427 168.858 C 362.427 172.379,362.479 173.819,362.542 172.059 C 362.604 170.298,362.604 167.418,362.542 165.657 C 362.479 163.897,362.427 165.337,362.427 168.858 M317.793 170.934 C 317.793 174.836,317.843 176.432,317.905 174.481 C 317.967 172.530,317.967 169.338,317.905 167.388 C 317.843 165.437,317.793 167.033,317.793 170.934 M317.405 179.931 C 317.405 180.978,317.470 181.406,317.549 180.882 C 317.628 180.359,317.628 179.503,317.549 178.979 C 317.470 178.456,317.405 178.884,317.405 179.931 M362.041 180.969 C 362.041 182.016,362.106 182.444,362.186 181.920 C 362.265 181.397,362.265 180.541,362.186 180.017 C 362.106 179.494,362.041 179.922,362.041 180.969 M317.035 184.775 C 317.035 185.441,317.107 185.714,317.194 185.381 C 317.281 185.048,317.281 184.503,317.194 184.170 C 317.107 183.837,317.035 184.109,317.035 184.775 M361.432 185.653 C 361.298 186.725,361.260 187.673,361.348 187.761 C 361.436 187.849,361.618 187.044,361.751 185.973 C 361.885 184.901,361.923 183.953,361.835 183.865 C 361.747 183.777,361.566 184.582,361.432 185.653 M316.343 189.273 C 316.343 189.939,316.414 190.212,316.501 189.879 C 316.589 189.546,316.589 189.001,316.501 188.668 C 316.414 188.335,316.343 188.607,316.343 189.273 M360.994 190.657 C 360.994 191.514,361.061 191.864,361.144 191.436 C 361.226 191.008,361.226 190.307,361.144 189.879 C 361.061 189.451,360.994 189.801,360.994 190.657 M315.744 192.042 C 315.613 192.640,315.583 193.207,315.678 193.302 C 315.773 193.397,315.959 192.986,316.090 192.388 C 316.221 191.789,316.251 191.222,316.156 191.127 C 316.061 191.032,315.875 191.443,315.744 192.042 M314.731 196.738 C 314.603 197.245,314.566 197.726,314.647 197.808 C 314.729 197.889,314.900 197.541,315.027 197.034 C 315.154 196.527,315.192 196.045,315.110 195.964 C 315.029 195.882,314.858 196.230,314.731 196.738 M359.565 198.838 C 359.320 199.894,359.183 200.821,359.262 200.899 C 359.340 200.978,359.610 200.184,359.862 199.135 C 360.113 198.086,360.250 197.159,360.165 197.074 C 360.080 196.989,359.810 197.783,359.565 198.838 M358.864 202.826 C 358.842 203.144,358.734 203.689,358.624 204.037 C 358.436 204.638,358.446 204.639,358.821 204.055 C 359.038 203.716,359.146 203.171,359.060 202.844 C 358.919 202.308,358.900 202.306,358.864 202.826 M311.346 208.486 C 311.239 208.862,311.046 209.481,310.917 209.862 C 310.788 210.242,310.936 210.116,311.246 209.581 C 311.555 209.047,311.748 208.428,311.674 208.206 C 311.600 207.985,311.452 208.111,311.346 208.486 M309.053 214.375 C 308.832 214.860,308.657 215.445,308.664 215.674 C 308.672 215.903,308.907 215.560,309.188 214.913 C 309.780 213.551,309.655 213.054,309.053 214.375 M355.788 214.619 C 355.199 216.249,355.280 216.690,355.905 215.251 C 356.187 214.599,356.372 213.926,356.315 213.756 C 356.259 213.585,356.021 213.974,355.788 214.619 M357.093 247.059 C 357.482 247.820,357.877 248.443,357.973 248.443 C 358.068 248.443,357.828 247.820,357.439 247.059 C 357.051 246.298,356.655 245.675,356.560 245.675 C 356.465 245.675,356.705 246.298,357.093 247.059 " stroke="none" fill="#95b8bc" fill-rule="evenodd"></path></g></svg>